<svg  viewBox="0 0 24 24">
<path d="M21.279 17.118c-.673-.927-2.174-3.048-2.174-7.32 0-4.439-2.304-6.384-4.235-7.235l-.194-.085h-.03a1.452 1.452 0 0 0-.138-.048 2.19 2.19 0 0 0-.737-.23c-.76-.2-1.41-.2-1.985-.2-.574 0-1.128.08-1.714.166l-.194.028a2.123 2.123 0 0 0-.816.236 1.62 1.62 0 0 0-.136.048l-.223.085c-1.933.85-4.236 2.796-4.236 7.235 0 4.063-1.402 6.16-2.155 7.286l-.038.056a1.292 1.292 0 0 0 .092 1.695c.144.144.484.484 1.09.484h16.66c.605 0 .945-.34 1.09-.484l.115-.114.072-.146c.359-.718.087-1.218-.114-1.457zm-5.206 4.202c-1.04 1.413-2.615 2.308-4.383 2.308-1.768 0-3.345-.895-4.384-2.308h8.767z" />
</svg>

