<svg width="12" height="12" viewBox="0 0 12 12" fill="none" xmlns="http://www.w3.org/2000/svg">
<path d="M9.40864 8.95833C7.85382 8.375 7.33555 7.875 7.33555 6.79167C7.33555 6.125 7.81395 6.375 8.01329 5.16667C8.09302 4.66667 8.53156 5.16667 8.6113 4.04167C8.6113 3.58333 8.37209 3.5 8.37209 3.5C8.37209 3.5 8.49169 2.83333 8.53156 2.33333C8.57143 1.625 8.17276 0 5.98007 0C3.82724 0 3.3887 1.625 3.46844 2.29167C3.50831 2.79167 3.62791 3.45833 3.62791 3.45833C3.62791 3.45833 3.3887 3.58333 3.3887 4C3.46844 5.125 3.90698 4.625 3.98671 5.125C4.18605 6.33333 4.66445 6.08333 4.66445 6.75C4.66445 7.83333 4.14618 8.33333 2.59136 8.91667C1.03654 9.58333 0 10.1667 0 10.5833C0 11 0 12 0 12H12C12 12 12 11 12 10.5833C12 10.1667 10.9635 9.58333 9.40864 8.95833Z" fill="#D1D5D9"/>
</svg>
