<svg xmlns="http://www.w3.org/2000/svg" width="20" height="18" fill="none" viewBox="0 0 20 18"><path fill="#fff" fill-rule="evenodd" d="M0 8.99954C0 13.9618 3.98005 18 8.87193 18C10.992 18 13.0429 17.23 14.6493 15.831C15.0702 15.4649 15.1175 14.8222 14.7565 14.3961C14.3965 13.9692 13.7629 13.9203 13.3429 14.2864C12.1001 15.369 10.5129 15.9648 8.87193 15.9648C5.08643 15.9648 2.00548 12.8395 2.00548 8.99954C2.00548 5.15959 5.08643 2.03525 8.87193 2.03525C12.4156 2.03525 15.3402 4.77227 15.7011 8.27102L15.0247 7.41155C14.6802 6.97167 14.0484 6.89882 13.6156 7.24924C13.182 7.59967 13.1111 8.23966 13.4565 8.67954L16.1902 12.1608L19.6221 9.38685C20.0548 9.03827 20.1266 8.39736 19.7821 7.9584C19.4357 7.5176 18.8057 7.44475 18.372 7.7961L17.7111 8.33004C17.3702 3.68041 13.5411 0 8.87193 0C3.98005 0 0 4.0373 0 8.99954ZM7 5.98032V10.96L10.9956 11H11.0056C11.5501 11 11.9936 10.5676 12 10.0303C12.0054 9.48957 11.5645 9.04647 11.0155 9.04114L8.9897 9.02161V5.98032C8.9897 5.43866 8.54434 5 7.9944 5C7.44536 5 7 5.43866 7 5.98032Z" clip-rule="evenodd"/></svg>