<svg xmlns="http://www.w3.org/2000/svg" width="12" height="12" fill="none" viewBox="0 0 12 12"><path fill="#fff" fill-rule="evenodd" d="M11.3566 7.60988C10.7693 7.97306 9.83537 8.20969 8.78106 8.20969C8.23825 8.20969 7.72975 8.14688 7.28144 8.03588C7.38587 8.18363 7.44494 8.33963 7.44494 8.50181C7.44494 8.91431 7.08531 9.28688 6.50312 9.55706C7.08644 9.82706 7.89137 9.99581 8.78106 9.99581C10.5586 9.99581 12.0001 9.32663 12.0001 8.50181C12.0001 8.16675 11.7586 7.85906 11.3566 7.60988ZM3.21794 4.25437C1.44156 4.25437 6.10352e-05 4.9245 6.10352e-05 5.74725C6.10352e-05 6.57225 1.44156 7.24125 3.21794 7.24125C4.99637 7.24125 6.43787 6.57225 6.43787 5.74725C6.43787 4.9245 4.99637 4.25437 3.21794 4.25437ZM5.80337 7.61606C5.21706 7.9815 4.27919 8.22131 3.21794 8.22131C2.15781 8.22131 1.22069 7.9815 0.634561 7.61606C0.237436 7.86413 6.10352e-05 8.16994 6.10352e-05 8.50181C6.10352e-05 9.32662 1.44156 9.99469 3.21906 9.99469C4.99637 9.99469 6.43787 9.32662 6.43787 8.50181C6.43787 8.16881 6.2005 7.86413 5.80337 7.61606ZM8.78012 1.5C7.00356 1.5 5.56206 2.16994 5.56206 2.99287C5.56206 3.81769 7.00356 4.48688 8.78012 4.48688C10.5586 4.48688 12.0001 3.81769 12.0001 2.99287C12.0001 2.16994 10.5586 1.5 8.78012 1.5ZM12.0001 5.74725C12.0001 6.57225 10.5586 7.24125 8.78106 7.24125C7.89137 7.24125 7.08644 7.07269 6.50312 6.8025C7.08531 6.5325 7.44494 6.15994 7.44494 5.74725C7.44494 5.58506 7.38587 5.42906 7.28144 5.2815C7.72975 5.3925 8.23825 5.45531 8.78106 5.45531C9.83537 5.45531 10.7693 5.21869 11.3566 4.8555C11.7586 5.10469 12.0001 5.41237 12.0001 5.74725Z" clip-rule="evenodd"/></svg>