<svg width="12" height="12" viewBox="0 0 12 12" fill="none" xmlns="http://www.w3.org/2000/svg">
<path fill-rule="evenodd" clip-rule="evenodd" d="M9.6958 8.7H5.79819C5.75564 8.52541 5.72971 8.25469 5.72971 8.0536C5.72971 5.88784 8.21408 5.49484 8.21408 4.64769C8.21408 4.23702 7.88829 4.06243 7.5974 4.06243C7.04919 4.06243 6.74068 4.68233 6.74068 4.68233L5.6958 3.9663C5.6958 3.9663 6.22672 2.7 7.72572 2.7C8.66787 2.7 9.68749 3.26759 9.68749 4.51658C9.68749 6.35082 7.36601 6.76998 7.33177 7.46869H9.6958V8.7ZM4.1469 7.8012L3.5496 6.765C3.4992 6.6858 3.4575 6.5718 3.4575 6.5718H3.4404C3.4404 6.5718 3.39 6.6858 3.3483 6.765L2.7429 7.8012H1.8012L2.9277 5.9835L1.8264 4.2006H2.7933L3.3231 5.193C3.3735 5.2806 3.4404 5.43 3.4404 5.43H3.4575C3.4575 5.43 3.5163 5.2806 3.5748 5.193L4.0962 4.2006H5.0628L3.9618 5.9835L5.0967 7.8012H4.1469ZM12 5.9967C12 5.6628 11.7738 5.4159 11.5869 5.2155C11.5002 5.1219 11.3805 4.9884 11.367 4.9284C11.3538 4.8615 11.4138 4.6878 11.4606 4.5609C11.5605 4.2939 11.667 3.9933 11.547 3.6996C11.4204 3.399 11.1273 3.2655 10.8675 3.1452C10.7541 3.0921 10.581 3.0117 10.5477 2.9583C10.5075 2.9049 10.5009 2.718 10.4943 2.5845C10.4811 2.2974 10.4676 1.9767 10.2411 1.7496C10.0146 1.5228 9.6948 1.5093 9.4083 1.4958C9.2748 1.4892 9.0951 1.4826 9.0351 1.4424C8.9817 1.4025 8.9019 1.2354 8.8488 1.122C8.7285 0.8616 8.5953 0.5676 8.2956 0.4476C8.2089 0.414 8.1156 0.3942 8.0157 0.3942C7.8156 0.3942 7.6227 0.4674 7.4361 0.5343C7.3095 0.5811 7.1694 0.6345 7.0893 0.6345H7.0695C7.0095 0.6213 6.8697 0.4941 6.783 0.414C6.5832 0.2271 6.3366 0 6.0033 0C5.6703 0 5.424 0.2271 5.2239 0.414C5.1306 0.501 4.9974 0.6213 4.9371 0.6345H4.9173C4.8372 0.6345 4.6908 0.5811 4.5711 0.5343C4.3845 0.4674 4.191 0.3942 3.9912 0.3942C3.8913 0.3942 3.798 0.414 3.7116 0.4476C3.405 0.5676 3.2718 0.8616 3.1515 1.122C3.0984 1.2354 3.0183 1.4091 2.9649 1.4424C2.9118 1.4826 2.7252 1.4892 2.592 1.4958C2.3055 1.5093 1.9857 1.5228 1.7592 1.7496C1.5327 1.9767 1.5192 2.2974 1.506 2.5845C1.4991 2.718 1.4925 2.8983 1.4526 2.9583C1.4124 3.0117 1.2462 3.0921 1.1328 3.1452C0.873 3.2655 0.5799 3.399 0.453 3.6996C0.3333 3.9933 0.4398 4.2939 0.5397 4.5609C0.5865 4.6878 0.6465 4.8615 0.6333 4.9284C0.6198 4.9884 0.4932 5.1288 0.4131 5.2155C0.2265 5.4159 0 5.6628 0 5.9967C0 6.3306 0.2265 6.5778 0.4131 6.7782C0.4998 6.8715 0.6198 7.005 0.6333 7.0653C0.6465 7.1319 0.5865 7.3056 0.5397 7.4325C0.4398 7.6995 0.3333 8.0001 0.453 8.2938C0.5799 8.5944 0.873 8.7279 1.1328 8.8482C1.2462 8.9016 1.4193 8.9817 1.4526 9.0351C1.4925 9.0885 1.4991 9.2754 1.506 9.4092C1.5192 9.6963 1.5327 10.0167 1.7592 10.2438C1.9857 10.4709 2.3055 10.4844 2.592 10.4976C2.7252 10.5042 2.9052 10.5108 2.9649 10.551C3.0183 10.5912 3.0984 10.758 3.1515 10.8717C3.2718 11.1321 3.405 11.4258 3.7047 11.5527C3.7914 11.586 3.8847 11.6061 3.9846 11.6061C4.1847 11.6061 4.3776 11.5326 4.5642 11.466C4.6908 11.4192 4.8309 11.3658 4.9107 11.3658H4.9308C4.9905 11.379 5.1306 11.5059 5.2173 11.586C5.4171 11.7732 5.6634 12 5.997 12C6.33 12 6.5763 11.7732 6.7761 11.586C6.8697 11.4993 7.0029 11.379 7.0626 11.3658H7.083C7.1628 11.3658 7.3095 11.4192 7.4292 11.466C7.6158 11.5326 7.8093 11.6061 8.0091 11.6061C8.109 11.6061 8.202 11.586 8.2887 11.5527C8.5887 11.4258 8.7219 11.1321 8.8419 10.8717C8.8953 10.758 8.9751 10.5843 9.0285 10.551C9.0819 10.5108 9.2682 10.5042 9.4014 10.4976C9.6879 10.4844 10.008 10.4709 10.2345 10.2438C10.461 10.0167 10.4742 9.6963 10.4874 9.4092C10.4943 9.2754 10.5009 9.0954 10.5408 9.0351C10.581 8.9817 10.7475 8.9016 10.8609 8.8482C11.1207 8.7279 11.4138 8.5944 11.5404 8.2938C11.6604 8.0001 11.5536 7.6995 11.4537 7.4325C11.4072 7.3056 11.3472 7.1319 11.3607 7.0653C11.3739 7.005 11.5002 6.8649 11.5869 6.7782C11.7738 6.5778 12 6.3306 12 5.9967Z" fill="#FFDE24"/>
</svg>
