<svg  viewBox="0 0 24 24">
<path d="M8.595 23.033H3.891c-.533 0-.983-.19-1.37-.578a1.734 1.734 0 0 1-.453-1.72c1.06-4.898 4.448-7.488 9.798-7.488 3.051 0 5.483.882 7.182 2.545-.01.007-.024.01-.036.016a2.413 2.413 0 0 0-1.333-.394h-.902c-.174 0-.345.019-.51.057a2.501 2.501 0 0 0-.539-.057h-.796c-.619 0-1.185.215-1.614.597a2.39 2.39 0 0 0-1.608-.597h-.796a2.329 2.329 0 0 0-2.354 2.353v4.912c0 .122.017.238.035.354m7.133 0h-.82c-.223 0-.345-.125-.345-.354v-2.546l-.949 1.56c-.046.076-.125.173-.29.173a.33.33 0 0 1-.294-.171l-.944-1.56v2.544c0 .225-.128.354-.353.354h-.819c-.224 0-.354-.13-.354-.354v-4.912c0-.224.13-.353.354-.353h.796c.168 0 .288.062.37.192l1.244 2.077 1.242-2.075c.068-.126.191-.194.366-.194h.796c.232 0 .361.125.361.353v4.912c0 .225-.132.354-.36.354m3.717 0h-.866c-.224 0-.353-.13-.353-.354v-1.716l-1.712-3.078a.315.315 0 0 1-.008-.322.303.303 0 0 1 .27-.15h.902c.243 0 .35.149.415.278l.721 1.443.197.453.197-.448.721-1.447c.068-.131.176-.278.417-.278h.901c.118 0 .218.057.271.149a.32.32 0 0 1-.012.325L19.8 20.963v1.716c0 .225-.129.354-.353.354M6.596 6.652c0 3.004 1.97 4.797 5.271 4.797 3.29 0 5.177-1.748 5.177-4.797C17.044 3.377 14.867 1 11.867 1 8.862 1 6.595 3.429 6.595 6.652z" />
</svg>

