<svg xmlns="http://www.w3.org/2000/svg" width="77" height="11" fill="none" viewBox="0 0 77 11"><path fill="#fff" d="M6.66081 7.1441C7.84409 6.60226 8.44333 5.51375 8.44333 3.90766C8.44333 2.4617 8.09729 1.43949 7.41196 0.868549C6.71989 0.292751 5.57712 0 4.01235 0H0.371358C0.101279 0 0 0.0970445 0 0.35583V10.6426C0 10.903 0.101279 10.9984 0.371358 10.9984H2.586C2.85777 10.9984 2.95905 10.9013 2.95905 10.6426V7.7668V7.64064H3.09071H3.70176H3.78447L3.81992 7.71181L5.29691 10.6555C5.41845 10.89 5.61257 10.9984 5.90796 10.9984H8.15637C8.34542 10.9984 8.37412 10.9353 8.38593 10.911C8.42138 10.8334 8.40281 10.7299 8.33361 10.6021L6.53759 7.34627L6.47344 7.22982L6.59667 7.17321L6.66081 7.1441ZM5.11799 5.03661C4.90023 5.27761 4.51706 5.39891 3.97859 5.39891H3.09071H2.95905V5.27275V2.52639V2.40024H3.09071H3.97859C4.52381 2.40024 4.89517 2.51345 5.11461 2.74313C5.33067 2.96795 5.43533 3.34965 5.43533 3.90766C5.43533 4.4317 5.33067 4.80047 5.11799 5.03661ZM13.1613 0.35583V10.6426C13.1613 10.903 13.06 10.9984 12.7899 10.9984H10.5584C10.2866 10.9984 10.1853 10.9013 10.1853 10.6426V0.35583C10.1853 0.0954271 10.2866 0 10.5584 0H12.7899C13.06 0 13.1613 0.0970445 13.1613 0.35583ZM18.7282 0H15.4586C15.1885 0 15.0873 0.0970445 15.0873 0.35583V10.6426C15.0873 10.903 15.1885 10.9984 15.4586 10.9984H18.7637C20.4635 10.9984 21.7109 10.5843 22.4739 9.76753C23.2419 8.94427 23.6319 7.50801 23.6319 5.49919C23.6319 3.48875 23.2402 2.05249 22.4671 1.23085C21.6974 0.414057 20.4399 0 18.7282 0ZM20.2052 7.86708C19.9098 8.30863 19.3967 8.53345 18.6793 8.53345H18.1932H18.0615V8.40729V2.59109V2.46493H18.1932H18.6455C19.3612 2.46493 19.8795 2.68813 20.185 3.12807C20.4787 3.55021 20.6205 4.32495 20.6205 5.49919C20.6222 6.67181 20.4854 7.44655 20.2052 7.86708ZM28.3667 0.35583V10.6426C28.3667 10.903 28.2671 10.9984 27.9953 10.9984H25.7638C25.492 10.9984 25.3924 10.9013 25.3924 10.6426V0.35583C25.3924 0.0954271 25.4937 0 25.7638 0H27.9953C28.2654 0 28.3667 0.0970445 28.3667 0.35583ZM49.0243 10.6005L44.887 0.329951C44.8195 0.143949 44.7452 0 44.4566 0H43.4573C43.167 0 43.0944 0.143949 43.0286 0.329951L38.8896 10.6037C38.8558 10.7056 38.871 10.8075 38.9284 10.8835C38.9858 10.9579 39.077 10.9984 39.185 10.9984H40.0661C40.3193 10.9984 40.3835 10.8334 40.4358 10.6992L41.4587 8.09513H46.4636L47.4832 10.7008C47.5389 10.8447 47.6199 10.9984 47.8663 10.9984H48.7323C48.842 10.9984 48.9331 10.9579 48.9888 10.8835C49.0429 10.8091 49.0581 10.7072 49.0243 10.6005ZM42.0073 6.69122L43.9637 1.7096L45.9116 6.69122H42.0073ZM60.2005 10.9984C59.9608 10.9984 59.8392 10.8755 59.8392 10.6345V0.34936C59.8392 0.124541 59.9625 0 60.1853 0H67.0098C67.2394 0 67.3711 0.127775 67.3711 0.34936V1.05617C67.3711 1.28099 67.2326 1.42009 67.0098 1.42009H61.3213V4.794H66.8461C67.0655 4.794 67.1921 4.92663 67.1921 5.15792V5.80326C67.1921 6.03455 67.0655 6.16718 66.8461 6.16718H61.3213V9.5783H67.0554C67.285 9.5783 67.4166 9.70607 67.4166 9.92766V10.6199C67.4166 10.9499 67.1904 11 67.0554 11H60.2005V10.9984ZM31.7747 10.9984C31.5418 10.9984 31.4135 10.869 31.4135 10.6345V0.363917C31.4135 0.132628 31.5401 0 31.7595 0H34.8941C37.9916 0 39.3741 1.06264 39.3741 3.72813C39.3741 6.3823 37.9933 7.4417 34.8941 7.4417H32.9107V10.6345C32.9107 10.8593 32.7723 10.9984 32.5495 10.9984H31.7747ZM34.8941 6.02323C37.0193 6.02323 37.8464 5.47008 37.8464 3.72975C37.8464 1.97809 37.0193 1.42009 34.8941 1.42009H32.9107V6.02323H34.8941ZM50.584 10.9984C50.3511 10.9984 50.2228 10.869 50.2228 10.6345V0.363917C50.2228 0.132628 50.3494 0 50.5688 0H53.7034C56.8009 0 58.1833 1.06264 58.1833 3.72813C58.1833 6.3823 56.8026 7.4417 53.7034 7.4417H51.72V10.6345C51.72 10.8593 51.5816 10.9984 51.3588 10.9984H50.584ZM53.7051 6.02323C55.8303 6.02323 56.6574 5.47008 56.6574 3.72975C56.6574 1.97809 55.8303 1.42009 53.7051 1.42009H51.7217V6.02323H53.7051ZM74.8624 7.13763C76.3242 6.65726 76.9994 5.5833 76.9994 3.72813C76.9994 1.06426 75.6169 0 72.5194 0H69.3848C69.1654 0 69.0388 0.132628 69.0388 0.363917V10.6345C69.0388 10.869 69.1671 10.9984 69.4 10.9984H70.1765C70.3993 10.9984 70.5377 10.8593 70.5377 10.6345V7.44332H72.5211C72.7861 7.44332 73.0393 7.43523 73.2807 7.41906L75.3215 10.7622C75.4397 10.9013 75.5409 11 75.7773 11H76.6871C76.8626 11 76.9386 10.9127 76.9673 10.8609C77.023 10.7606 77.0078 10.6248 76.92 10.4954L74.8624 7.13763ZM70.536 6.02323V1.42009H72.5194C74.6446 1.42009 75.4717 1.97647 75.4717 3.72975C75.4717 5.47008 74.6446 6.02323 72.5194 6.02323H70.536Z"/></svg>