<svg  viewBox="0 0 44 44">
<path d="M.001 22s-.046 4.493.453 8.846c.428 3.727 1.402 7.614 3.244 9.456 1.842 1.842 5.729 2.816 9.457 3.244 4.352.499 8.845.453 8.845.453s4.493.046 8.846-.453c3.727-.428 7.614-1.402 9.456-3.244 1.842-1.842 2.816-5.729 3.244-9.456.499-4.353.453-8.846.453-8.846s.046-4.493-.453-8.845c-.428-3.728-1.402-7.615-3.244-9.457C38.46 1.856 34.573.882 30.846.454 26.493-.045 22 .001 22 .001s-4.493-.046-8.845.453C9.427.882 5.54 1.856 3.698 3.698 1.856 5.54.882 9.427.454 13.155-.045 17.507.001 22 .001 22" />
</svg>

